<mxfile host="app.diagrams.net" agent="Mozilla/5.0 (Windows NT 10.0; Win64; x64) AppleWebKit/537.36 (KHTML, like Gecko) Chrome/127.0.0.0 Safari/537.36" version="24.7.6">
  <diagram name="Page-1" id="knQFLreWpMhf7assTrFb">
    <mxGraphModel dx="1050" dy="522" grid="0" gridSize="10" guides="1" tooltips="1" connect="1" arrows="1" fold="1" page="0" pageScale="1" pageWidth="827" pageHeight="1169" math="0" shadow="0">
      <root>
        <mxCell id="0" />
        <mxCell id="1" parent="0" />
        <mxCell id="-KI1FM6zi9q6aWkxHTV0-3" value="" style="edgeStyle=orthogonalEdgeStyle;rounded=0;orthogonalLoop=1;jettySize=auto;html=1;" edge="1" parent="1" source="-KI1FM6zi9q6aWkxHTV0-1" target="-KI1FM6zi9q6aWkxHTV0-2">
          <mxGeometry relative="1" as="geometry" />
        </mxCell>
        <mxCell id="-KI1FM6zi9q6aWkxHTV0-1" value="憲法" style="rounded=1;whiteSpace=wrap;html=1;" vertex="1" parent="1">
          <mxGeometry x="271" y="259" width="42" height="26" as="geometry" />
        </mxCell>
        <mxCell id="-KI1FM6zi9q6aWkxHTV0-5" value="" style="edgeStyle=orthogonalEdgeStyle;rounded=0;orthogonalLoop=1;jettySize=auto;html=1;" edge="1" parent="1" source="-KI1FM6zi9q6aWkxHTV0-2" target="-KI1FM6zi9q6aWkxHTV0-4">
          <mxGeometry relative="1" as="geometry" />
        </mxCell>
        <mxCell id="-KI1FM6zi9q6aWkxHTV0-11" value="" style="edgeStyle=orthogonalEdgeStyle;rounded=0;orthogonalLoop=1;jettySize=auto;html=1;" edge="1" parent="1" source="-KI1FM6zi9q6aWkxHTV0-2" target="-KI1FM6zi9q6aWkxHTV0-10">
          <mxGeometry relative="1" as="geometry" />
        </mxCell>
        <mxCell id="-KI1FM6zi9q6aWkxHTV0-2" value="法" style="rounded=1;whiteSpace=wrap;html=1;" vertex="1" parent="1">
          <mxGeometry x="277" y="313" width="30" height="26" as="geometry" />
        </mxCell>
        <mxCell id="-KI1FM6zi9q6aWkxHTV0-7" value="" style="edgeStyle=orthogonalEdgeStyle;rounded=0;orthogonalLoop=1;jettySize=auto;html=1;" edge="1" parent="1" source="-KI1FM6zi9q6aWkxHTV0-4" target="-KI1FM6zi9q6aWkxHTV0-6">
          <mxGeometry relative="1" as="geometry" />
        </mxCell>
        <mxCell id="-KI1FM6zi9q6aWkxHTV0-12" style="edgeStyle=orthogonalEdgeStyle;rounded=0;orthogonalLoop=1;jettySize=auto;html=1;entryX=0;entryY=0.5;entryDx=0;entryDy=0;" edge="1" parent="1" source="-KI1FM6zi9q6aWkxHTV0-4" target="-KI1FM6zi9q6aWkxHTV0-10">
          <mxGeometry relative="1" as="geometry" />
        </mxCell>
        <mxCell id="-KI1FM6zi9q6aWkxHTV0-18" value="" style="edgeStyle=orthogonalEdgeStyle;rounded=0;orthogonalLoop=1;jettySize=auto;html=1;" edge="1" parent="1" source="-KI1FM6zi9q6aWkxHTV0-4" target="-KI1FM6zi9q6aWkxHTV0-17">
          <mxGeometry relative="1" as="geometry" />
        </mxCell>
        <mxCell id="-KI1FM6zi9q6aWkxHTV0-4" value="施行令" style="rounded=1;whiteSpace=wrap;html=1;" vertex="1" parent="1">
          <mxGeometry x="265" y="367" width="54" height="26" as="geometry" />
        </mxCell>
        <mxCell id="-KI1FM6zi9q6aWkxHTV0-9" value="" style="edgeStyle=orthogonalEdgeStyle;rounded=0;orthogonalLoop=1;jettySize=auto;html=1;" edge="1" parent="1" source="-KI1FM6zi9q6aWkxHTV0-6" target="-KI1FM6zi9q6aWkxHTV0-8">
          <mxGeometry relative="1" as="geometry" />
        </mxCell>
        <mxCell id="-KI1FM6zi9q6aWkxHTV0-21" value="" style="edgeStyle=orthogonalEdgeStyle;rounded=0;orthogonalLoop=1;jettySize=auto;html=1;" edge="1" parent="1" source="-KI1FM6zi9q6aWkxHTV0-6" target="-KI1FM6zi9q6aWkxHTV0-20">
          <mxGeometry relative="1" as="geometry" />
        </mxCell>
        <mxCell id="-KI1FM6zi9q6aWkxHTV0-6" value="施行規則" style="rounded=1;whiteSpace=wrap;html=1;" vertex="1" parent="1">
          <mxGeometry x="259" y="421" width="66" height="26" as="geometry" />
        </mxCell>
        <mxCell id="-KI1FM6zi9q6aWkxHTV0-8" value="告示" style="rounded=1;whiteSpace=wrap;html=1;" vertex="1" parent="1">
          <mxGeometry x="259" y="475" width="66" height="26" as="geometry" />
        </mxCell>
        <mxCell id="-KI1FM6zi9q6aWkxHTV0-14" value="" style="edgeStyle=orthogonalEdgeStyle;rounded=0;orthogonalLoop=1;jettySize=auto;html=1;" edge="1" parent="1" source="-KI1FM6zi9q6aWkxHTV0-10" target="-KI1FM6zi9q6aWkxHTV0-13">
          <mxGeometry relative="1" as="geometry" />
        </mxCell>
        <mxCell id="-KI1FM6zi9q6aWkxHTV0-10" value="条例" style="rounded=1;whiteSpace=wrap;html=1;" vertex="1" parent="1">
          <mxGeometry x="376" y="367" width="42" height="26" as="geometry" />
        </mxCell>
        <mxCell id="-KI1FM6zi9q6aWkxHTV0-13" value="細則" style="rounded=1;whiteSpace=wrap;html=1;" vertex="1" parent="1">
          <mxGeometry x="376" y="421" width="42" height="26" as="geometry" />
        </mxCell>
        <mxCell id="-KI1FM6zi9q6aWkxHTV0-17" value="通達" style="rounded=1;whiteSpace=wrap;html=1;" vertex="1" parent="1">
          <mxGeometry x="94" y="421" width="54" height="26" as="geometry" />
        </mxCell>
        <mxCell id="-KI1FM6zi9q6aWkxHTV0-20" value="助言" style="rounded=1;whiteSpace=wrap;html=1;" vertex="1" parent="1">
          <mxGeometry x="179" y="475" width="42" height="26" as="geometry" />
        </mxCell>
      </root>
    </mxGraphModel>
  </diagram>
</mxfile>
